<svg xmlns="http://www.w3.org/2000/svg" viewBox="0 0 256 256" width="256" height="256">
  <defs>
    <linearGradient id="sun-gradient" x1="0%" y1="100%" x2="0%" y2="0%">
      <stop offset="0%" stop-color="#d97706" /> <!-- Sunbeam-600 -->
      <stop offset="100%" stop-color="#fbbf24" /> <!-- Sunbeam-400 -->
    </linearGradient>
  </defs>

  <!-- Sun Rays (Bold and Clear) -->
  <g stroke="#fbbf24" stroke-width="12" stroke-linecap="round">
    <line x1="128" y1="90" x2="128" y2="50" />   <!-- Center Ray -->
    <line x1="80" y1="105" x2="50" y2="75" />    <!-- Left Ray -->
    <line x1="176" y1="105" x2="206" y2="75" />   <!-- Right Ray -->
  </g>

  <!-- Rising Sun (Solid Semi-Circle) -->
  <path d="M78 140 A 50 50 0 0 1 178 140" fill="url(#sun-gradient)" />

  <!-- The Book (Clear Open Scripture) -->
  <!-- Left Page -->
  <path d="M128 150 L 128 200 Q 80 215 30 200 L 30 150 Q 80 165 128 150 Z" 
        fill="#8b5cf6" stroke="#4c1d95" stroke-width="4" stroke-linejoin="round" />
  <!-- Right Page -->
  <path d="M128 150 L 128 200 Q 176 215 226 200 L 226 150 Q 176 165 128 150 Z" 
        fill="#7c3aed" stroke="#4c1d95" stroke-width="4" stroke-linejoin="round" />
  
  <!-- Page Details (Text Lines for Clarity) -->
  <g stroke="#ede9fe" stroke-width="3" opacity="0.5">
    <!-- Left Page Lines -->
    <line x1="50" y1="170" x2="110" y2="160" />
    <line x1="50" y1="185" x2="110" y2="175" />
    <!-- Right Page Lines -->
    <line x1="146" y1="160" x2="206" y2="170" />
    <line x1="146" y1="175" x2="206" y2="185" />
  </g>

  <!-- Book Spine Center -->
  <line x1="128" y1="150" x2="128" y2="200" stroke="#4c1d95" stroke-width="4" />

</svg>
